<svg aria-hidden="true" xmlns="http://www.w3.org/2000/svg" xmlns:xlink="http://www.w3.org/1999/xlink"><symbol viewBox="0 0 32 32" id="arrow-btn" xmlns="http://www.w3.org/2000/svg">
<title>arrow-btn</title>
<path d="M7.414 27.414l16.586-16.586v7.172c0 1.105 0.895 2 2 2s2-0.895 2-2v-12c0-0.809-0.487-1.538-1.235-1.848-0.248-0.103-0.508-0.151-0.765-0.151v-0.001h-12c-1.105 0-2 0.895-2 2s0.895 2 2 2h7.172l-16.586 16.586c-0.391 0.39-0.586 0.902-0.586 1.414s0.195 1.024 0.586 1.414c0.781 0.781 2.047 0.781 2.828 0z"/>
</symbol><symbol viewBox="0 0 22 22" id="chicken-leg" xmlns="http://www.w3.org/2000/svg">
<path d="M12.2341 0.802904C9.99034 1.47801 8.26685 3.2558 7.68717 5.49309L6.33002 10.6562C6.11101 11.4895 6.17349 12.3703 6.5077 13.1659L4.51149 15.4204C4.0294 15.1977 3.48767 15.1323 2.96528 15.2336C2.44284 15.3349 1.96684 15.5977 1.60662 15.9837C1.22833 16.4043 1.01364 16.9431 1.00063 17.5047C0.987616 18.0662 1.177 18.6141 1.53548 19.0514C1.89378 19.4886 2.39805 19.7868 2.95859 19.8932C3.18718 20.5436 3.69018 21.0654 4.33826 21.3245C4.98638 21.5836 5.71655 21.5547 6.34139 21.2453C6.9664 20.936 7.42508 20.3761 7.60014 19.7097C7.77499 19.0432 7.64907 18.3347 7.25444 17.7663L9.25407 15.5073C9.66749 15.6178 10.0963 15.6623 10.524 15.639C10.9621 15.6094 11.3924 15.51 11.7983 15.3452L16.8105 13.3158L16.8105 13.3157C18.9781 12.4379 20.5292 10.5181 20.9101 8.24223C21.2907 5.9661 20.4469 3.65832 18.6795 2.14306C16.9159 0.620017 14.4731 0.112311 12.2344 0.803252L12.2341 0.802904ZM5.98573 17.5047C5.85207 17.6663 5.73086 17.7393 5.66078 17.9462C5.69289 18.1521 5.72759 18.269 5.90445 18.3837C6.0953 18.5542 6.21077 18.7915 6.22586 19.0448C6.2411 19.2982 6.15488 19.5474 5.98573 19.7389C5.81486 19.9313 5.57354 20.0491 5.3145 20.0668C5.05546 20.0844 4.79989 20.0004 4.60372 19.8329C4.40756 19.6656 4.28674 19.4285 4.26781 19.1737C4.245 18.9914 4.15456 18.8238 4.01389 18.7032C3.87321 18.5826 3.69217 18.5175 3.50547 18.5204C3.24728 18.534 2.99343 18.449 2.79724 18.2831C2.60324 18.1141 2.48467 17.8767 2.46692 17.6224C2.44915 17.368 2.53361 17.1168 2.70229 16.9233C2.87391 16.7346 3.11273 16.6184 3.36923 16.599C3.62588 16.5796 3.87994 16.6585 4.07889 16.819C4.21758 16.9764 4.29964 17.0125 4.51149 17.0153C4.67956 16.9463 4.7118 16.7527 4.85478 16.599L7.00087 14.1752C7.08479 14.2611 7.49857 14.584 7.59114 14.6634C7.68371 14.7428 8.03938 15.0025 8.138 15.073L5.98573 17.5047ZM19.475 8.01044C19.1822 9.79993 17.9623 11.3095 16.2564 11.9931L11.2446 14.0218C10.6462 14.2642 9.97743 14.2784 9.36902 14.0615C8.76045 13.8445 8.25604 13.412 7.95447 12.8486C7.65274 12.2851 7.57553 11.6313 7.73777 11.0148L9.09476 5.85173C9.54976 4.09517 10.9029 2.69951 12.6644 2.16954C13.0614 2.04809 13.4715 1.97235 13.8863 1.94416C15.5033 1.84046 17.08 2.46864 18.1683 3.64999C19.2568 4.83144 19.7378 6.43704 19.4748 8.01052L19.475 8.01044Z"/>
<path d="M14.8772 4.05983C14.8772 4.40259 14.5948 4.68045 14.2464 4.68045C13.898 4.68045 13.6156 4.40259 13.6156 4.05983C13.6156 3.71708 13.898 3.43922 14.2464 3.43922C14.5948 3.43922 14.8772 3.71708 14.8772 4.05983Z"/>
<path d="M14.0362 6.61125C14.0362 6.95401 13.7537 7.23187 13.4054 7.23187C13.057 7.23187 12.7746 6.95401 12.7746 6.61125C12.7746 6.2685 13.057 5.99064 13.4054 5.99064C13.7537 5.99064 14.0362 6.2685 14.0362 6.61125Z"/>
<path d="M12.284 4.88732C12.284 5.23008 12.0016 5.50794 11.6532 5.50794C11.3048 5.50794 11.0224 5.23008 11.0224 4.88732C11.0224 4.54457 11.3048 4.26671 11.6532 4.26671C12.0016 4.26671 12.284 4.54457 12.284 4.88732Z"/>
</symbol><symbol viewBox="0 0 32 32" id="close" xmlns="http://www.w3.org/2000/svg">
<title>close</title>
<path d="M16 0c-8.837 0-16 7.163-16 16s7.163 16 16 16 16-7.163 16-16-7.163-16-16-16zM16 29c-7.18 0-13-5.82-13-13s5.82-13 13-13 13 5.82 13 13-5.82 13-13 13z"/>
<path d="M21 8l-5 5-5-5-3 3 5 5-5 5 3 3 5-5 5 5 3-3-5-5 5-5z"/>
</symbol><symbol viewBox="0 0 80 80" id="complete" xmlns="http://www.w3.org/2000/svg">
<path fill-rule="evenodd" clip-rule="evenodd" d="M40 77.5C60.7107 77.5 77.5 60.7107 77.5 40C77.5 19.2893 60.7107 2.5 40 2.5C19.2893 2.5 2.5 19.2893 2.5 40C2.5 60.7107 19.2893 77.5 40 77.5ZM40 80C62.0914 80 80 62.0914 80 40C80 17.9086 62.0914 0 40 0C17.9086 0 0 17.9086 0 40C0 62.0914 17.9086 80 40 80Z"/>
<path fill-rule="evenodd" clip-rule="evenodd" d="M22.254 37.91C22.8003 37.4879 23.5853 37.5885 24.0075 38.1348L36.4845 54.2816C36.9066 54.8278 36.806 55.6129 36.2597 56.035C35.7135 56.4571 34.9284 56.3564 34.5063 55.8102L22.0292 39.6634C21.6071 39.1171 21.7078 38.3321 22.254 37.91Z"/>
<path fill-rule="evenodd" clip-rule="evenodd" d="M59.7507 23.9687C60.295 24.3935 60.3918 25.179 59.967 25.7232L36.4808 55.815C36.056 56.3592 35.2705 56.456 34.7263 56.0313C34.1821 55.6065 34.0853 54.821 34.51 54.2768L57.9963 24.185C58.421 23.6408 59.2065 23.544 59.7507 23.9687Z"/>
</symbol><symbol viewBox="0 0 24 22" id="conserved" xmlns="http://www.w3.org/2000/svg">
<path fill-rule="evenodd" clip-rule="evenodd" d="M20.001 8.89272C22.0603 7.90347 22.9091 6.73467 22.9091 5.76441C22.9091 4.79415 22.0603 3.62534 20.001 2.6361C18.0097 1.67958 15.1824 1.05769 12 1.05769C8.81755 1.05769 5.99026 1.67958 3.99903 2.6361C1.93968 3.62534 1.09091 4.79415 1.09091 5.76441C1.09091 6.73467 1.93968 7.90347 3.99903 8.89272C5.99026 9.84924 8.81755 10.4711 12 10.4711C15.1824 10.4711 18.0097 9.84924 20.001 8.89272ZM12 11.5288C18.6274 11.5288 24 8.948 24 5.76441C24 2.58081 18.6274 0 12 0C5.37258 0 0 2.58081 0 5.76441C0 8.948 5.37258 11.5288 12 11.5288Z"/>
<path fill-rule="evenodd" clip-rule="evenodd" d="M20.7305 6.96095C21.1736 6.5095 21.3818 6.05229 21.3818 5.60581C21.3818 5.15932 21.1736 4.70212 20.7305 4.25067C20.2853 3.79704 19.6203 3.36927 18.7653 3.00082C17.0563 2.2644 14.6648 1.79812 12 1.79812C9.33522 1.79812 6.9437 2.2644 5.23472 3.00082C4.37968 3.36927 3.71475 3.79704 3.26948 4.25067C2.82635 4.70212 2.61818 5.15932 2.61818 5.60581C2.61818 6.05229 2.82635 6.5095 3.26948 6.96095C3.71475 7.41458 4.37968 7.84235 5.23472 8.21079C6.9437 8.94721 9.33522 9.41349 12 9.41349C14.6648 9.41349 17.0563 8.94721 18.7653 8.21079C19.6203 7.84235 20.2853 7.41458 20.7305 6.96095ZM12 9.83657C17.4224 9.83657 21.8182 7.94239 21.8182 5.60581C21.8182 3.26922 17.4224 1.37505 12 1.37505C6.57757 1.37505 2.18182 3.26922 2.18182 5.60581C2.18182 7.94239 6.57757 9.83657 12 9.83657Z"/>
<path d="M12 22C18.6274 22 24 19.3955 24 16.1827C24 16.1827 20.7273 20.9423 12 20.9423C3.27273 20.9423 0 16.1827 0 16.1827C0 19.3955 5.37258 22 12 22Z"/>
<path d="M12 19.8846C18.6274 19.8846 24 17.2801 24 14.0673C24 14.0673 20.7273 18.8269 12 18.8269C3.27273 18.8269 0 14.0673 0 14.0673C0 17.2801 5.37258 19.8846 12 19.8846Z"/>
<path d="M0 5.60581H1.09091V17.7692L0 16.1827V5.60581Z"/>
<path d="M24 5.60581H22.9091V17.7692L24 16.1827V5.60581Z"/>
<path fill-rule="evenodd" clip-rule="evenodd" d="M14.0575 6.06085L13.2924 3.09378C13.1441 2.5188 12.6113 2.11543 12 2.11543C11.3887 2.11543 10.8559 2.5188 10.7076 3.09378L9.94253 6.06085C9.82204 6.52814 10.1866 6.9808 10.6834 6.9808H13.3166C13.8134 6.9808 14.178 6.52814 14.0575 6.06085ZM12 1.37505C11.0383 1.37505 10.2 2.00963 9.96676 2.91421L9.20169 5.88128C8.96071 6.81586 9.68977 7.72119 10.6834 7.72119H13.3166C14.3102 7.72119 15.0393 6.81586 14.7983 5.88128L14.0332 2.91421C13.8 2.00964 12.9617 1.37505 12 1.37505Z"/>
<path d="M13.0909 5.2885C13.0909 5.6974 12.6025 6.02888 12 6.02888C11.3975 6.02888 10.9091 5.6974 10.9091 5.2885C10.9091 4.8796 11.3975 4.54812 12 4.54812C12.6025 4.54812 13.0909 4.8796 13.0909 5.2885Z"/>
<path d="M4.36364 11.4231C4.36364 11.7152 4.11943 11.9519 3.81818 11.9519C3.51694 11.9519 3.27273 11.7152 3.27273 11.4231C3.27273 11.131 3.51694 10.8943 3.81818 10.8943C4.11943 10.8943 4.36364 11.131 4.36364 11.4231Z"/>
<path d="M4.36364 13.0096C4.36364 13.3017 4.11943 13.5385 3.81818 13.5385C3.51694 13.5385 3.27273 13.3017 3.27273 13.0096C3.27273 12.7176 3.51694 12.4808 3.81818 12.4808C4.11943 12.4808 4.36364 12.7176 4.36364 13.0096Z"/>
<path d="M4.36364 14.5962C4.36364 14.8882 4.11943 15.125 3.81818 15.125C3.51694 15.125 3.27273 14.8882 3.27273 14.5962C3.27273 14.3041 3.51694 14.0673 3.81818 14.0673C4.11943 14.0673 4.36364 14.3041 4.36364 14.5962Z"/>
<path d="M11.7007 16.5434C12.2665 16.6884 12.9183 16.7327 13.4882 16.861C14.1693 17.0144 14.9119 16.826 15.4422 16.2957C16.2647 15.4732 16.2647 14.1396 15.4422 13.3171C14.6197 12.4946 13.2861 12.4946 12.4635 13.3171C12.1644 13.6163 11.7675 13.8389 11.3952 14.0399C11.2822 14.1008 11.1761 14.1791 11.0806 14.2745C10.5518 14.8033 10.5518 15.6606 11.0806 16.1893C11.2585 16.3672 11.4735 16.4852 11.7007 16.5434Z" stroke-width="0.7"/>
</symbol><symbol viewBox="0 0 80 80" id="error" xmlns="http://www.w3.org/2000/svg">
<path fill-rule="evenodd" clip-rule="evenodd" d="M40 77.5C60.7107 77.5 77.5 60.7107 77.5 40C77.5 19.2893 60.7107 2.5 40 2.5C19.2893 2.5 2.5 19.2893 2.5 40C2.5 60.7107 19.2893 77.5 40 77.5ZM40 80C62.0914 80 80 62.0914 80 40C80 17.9086 62.0914 0 40 0C17.9086 0 0 17.9086 0 40C0 62.0914 17.9086 80 40 80Z"/>
<path fill-rule="evenodd" clip-rule="evenodd" d="M54.6532 25.3998C55.1298 25.9172 55.113 26.7383 54.6155 27.2339L27.1103 54.6395C26.6129 55.1351 25.8233 55.1175 25.3467 54.6002C24.8701 54.0829 24.887 53.2618 25.3844 52.7661L52.8896 25.3606C53.387 24.865 54.1766 24.8825 54.6532 25.3998Z"/>
<path fill-rule="evenodd" clip-rule="evenodd" d="M54.6532 25.3998C55.1298 25.9172 55.113 26.7383 54.6155 27.2339L27.1103 54.6395C26.6129 55.1351 25.8233 55.1175 25.3467 54.6002C24.8701 54.0829 24.887 53.2618 25.3844 52.7661L52.8896 25.3606C53.387 24.865 54.1766 24.8825 54.6532 25.3998Z"/>
<path fill-rule="evenodd" clip-rule="evenodd" d="M25.3468 25.3998C24.8702 25.9171 24.887 26.7382 25.3845 27.2339L52.8897 54.6394C53.3871 55.135 54.1767 55.1175 54.6533 54.6002C55.1299 54.0828 55.113 53.2617 54.6156 52.7661L27.1104 25.3605C26.613 24.8649 25.8234 24.8825 25.3468 25.3998Z"/>
<path fill-rule="evenodd" clip-rule="evenodd" d="M25.3468 25.3998C24.8702 25.9171 24.887 26.7382 25.3845 27.2339L52.8897 54.6394C53.3871 55.135 54.1767 55.1175 54.6533 54.6002C55.1299 54.0828 55.113 53.2617 54.6156 52.7661L27.1104 25.3605C26.613 24.8649 25.8234 24.8825 25.3468 25.3998Z"/>
</symbol><symbol viewBox="0 0 32 32" id="facebook" xmlns="http://www.w3.org/2000/svg">
<title>facebook</title>
<path d="M29 0h-26c-1.65 0-3 1.35-3 3v26c0 1.65 1.35 3 3 3h13v-14h-4v-4h4v-2c0-3.306 2.694-6 6-6h4v4h-4c-1.1 0-2 0.9-2 2v2h6l-1 4h-5v14h9c1.65 0 3-1.35 3-3v-26c0-1.65-1.35-3-3-3z"/>
</symbol><symbol viewBox="0 0 24 28" id="instagram" xmlns="http://www.w3.org/2000/svg">
<title>instagram</title>
<path d="M16 14c0-2.203-1.797-4-4-4s-4 1.797-4 4 1.797 4 4 4 4-1.797 4-4zM18.156 14c0 3.406-2.75 6.156-6.156 6.156s-6.156-2.75-6.156-6.156 2.75-6.156 6.156-6.156 6.156 2.75 6.156 6.156zM19.844 7.594c0 0.797-0.641 1.437-1.437 1.437s-1.437-0.641-1.437-1.437 0.641-1.437 1.437-1.437 1.437 0.641 1.437 1.437zM12 4.156c-1.75 0-5.5-0.141-7.078 0.484-0.547 0.219-0.953 0.484-1.375 0.906s-0.688 0.828-0.906 1.375c-0.625 1.578-0.484 5.328-0.484 7.078s-0.141 5.5 0.484 7.078c0.219 0.547 0.484 0.953 0.906 1.375s0.828 0.688 1.375 0.906c1.578 0.625 5.328 0.484 7.078 0.484s5.5 0.141 7.078-0.484c0.547-0.219 0.953-0.484 1.375-0.906s0.688-0.828 0.906-1.375c0.625-1.578 0.484-5.328 0.484-7.078s0.141-5.5-0.484-7.078c-0.219-0.547-0.484-0.953-0.906-1.375s-0.828-0.688-1.375-0.906c-1.578-0.625-5.328-0.484-7.078-0.484zM24 14c0 1.656 0.016 3.297-0.078 4.953-0.094 1.922-0.531 3.625-1.937 5.031s-3.109 1.844-5.031 1.937c-1.656 0.094-3.297 0.078-4.953 0.078s-3.297 0.016-4.953-0.078c-1.922-0.094-3.625-0.531-5.031-1.937s-1.844-3.109-1.937-5.031c-0.094-1.656-0.078-3.297-0.078-4.953s-0.016-3.297 0.078-4.953c0.094-1.922 0.531-3.625 1.937-5.031s3.109-1.844 5.031-1.937c1.656-0.094 3.297-0.078 4.953-0.078s3.297-0.016 4.953 0.078c1.922 0.094 3.625 0.531 5.031 1.937s1.844 3.109 1.937 5.031c0.094 1.656 0.078 3.297 0.078 4.953z"/>
</symbol><symbol viewBox="0 0 32 32" id="linkedin" xmlns="http://www.w3.org/2000/svg">
<title>linkedin</title>
<path d="M29 0h-26c-1.65 0-3 1.35-3 3v26c0 1.65 1.35 3 3 3h26c1.65 0 3-1.35 3-3v-26c0-1.65-1.35-3-3-3zM12 26h-4v-14h4v14zM10 10c-1.106 0-2-0.894-2-2s0.894-2 2-2c1.106 0 2 0.894 2 2s-0.894 2-2 2zM26 26h-4v-8c0-1.106-0.894-2-2-2s-2 0.894-2 2v8h-4v-14h4v2.481c0.825-1.131 2.087-2.481 3.5-2.481 2.488 0 4.5 2.238 4.5 5v9z"/>
</symbol><symbol viewBox="0 0 27 28" id="long-arrow-red" xmlns="http://www.w3.org/2000/svg">
<title>long-arrow-right</title>
<path d="M27 13.953c0 0.141-0.063 0.281-0.156 0.375l-6 5.531c-0.156 0.141-0.359 0.172-0.547 0.094-0.172-0.078-0.297-0.25-0.297-0.453v-3.5h-19.5c-0.281 0-0.5-0.219-0.5-0.5v-3c0-0.281 0.219-0.5 0.5-0.5h19.5v-3.5c0-0.203 0.109-0.375 0.297-0.453s0.391-0.047 0.547 0.078l6 5.469c0.094 0.094 0.156 0.219 0.156 0.359v0z"/>
</symbol><symbol viewBox="0 0 23 19" id="peppers_1" xmlns="http://www.w3.org/2000/svg">
<path d="M6.67343 5.3935C6.87647 5.349 7.01978 5.18293 6.99777 4.99442C6.96416 4.70661 6.88542 4.42411 6.76345 4.15569C6.59643 3.78808 6.35162 3.45407 6.04299 3.17271C5.73437 2.89136 5.36798 2.66818 4.96475 2.51591C4.56151 2.36364 4.12932 2.28527 3.69287 2.28527C3.25641 2.28527 2.82422 2.36364 2.42099 2.51591C2.01775 2.66818 1.65136 2.89136 1.34274 3.17271C1.03412 3.45407 0.789304 3.78808 0.622279 4.15569C0.500316 4.42411 0.421574 4.70661 0.387963 4.99443C0.365949 5.18293 0.509266 5.349 0.712302 5.3935C1.34283 5.53168 2.71129 5.80432 3.69287 5.80432C4.67444 5.80432 6.0429 5.53168 6.67343 5.3935Z"/>
<path d="M0.988392 6.2642C0.696358 6.20431 0.412019 6.39638 0.406521 6.66805C0.36368 8.78486 0.19406 15.8493 0.00139466 16.922C-0.0752033 17.3484 3.02089 16.0306 4.97146 12.8703C6.23523 10.8228 6.76469 7.95236 6.9425 6.72906C6.9843 6.44152 6.69205 6.21411 6.38002 6.27675C5.67636 6.41801 4.53082 6.61715 3.67748 6.61426C2.82308 6.61135 1.66962 6.40389 0.988392 6.2642Z"/>
<path d="M3.69196 1.09054C3.23672 1.6519 3.17656 2.66415 3.17955 3.19925C3.18069 3.40381 3.35658 3.56665 3.58104 3.58534L3.6167 3.58831C3.90251 3.6121 4.14634 3.39572 4.15378 3.13534C4.16677 2.6805 4.24672 2.02266 4.57135 1.63974C4.9566 1.18529 5.81345 0.968201 6.37704 0.871047C6.65666 0.822846 6.85095 0.572522 6.78186 0.321946L6.77738 0.305675C6.72157 0.103261 6.51103 -0.0301663 6.28457 0.00587595C5.6073 0.113671 4.2451 0.408473 3.69196 1.09054Z"/>
<path d="M14.6734 5.3935C14.8765 5.349 15.0198 5.18293 14.9978 4.99442C14.9642 4.70661 14.8854 4.42411 14.7635 4.15569C14.5964 3.78808 14.3516 3.45407 14.043 3.17271C13.7344 2.89136 13.368 2.66818 12.9647 2.51591C12.5615 2.36364 12.1293 2.28527 11.6929 2.28527C11.2564 2.28527 10.8242 2.36364 10.421 2.51591C10.0178 2.66818 9.65136 2.89136 9.34274 3.17271C9.03412 3.45407 8.7893 3.78808 8.62228 4.15569C8.50032 4.42411 8.42157 4.70661 8.38796 4.99443C8.36595 5.18293 8.50927 5.349 8.7123 5.3935C9.34283 5.53168 10.7113 5.80432 11.6929 5.80432C12.6744 5.80432 14.0429 5.53168 14.6734 5.3935Z"/>
<path d="M8.98839 6.2642C8.69636 6.20431 8.41202 6.39638 8.40652 6.66805C8.36368 8.78486 8.19406 15.8493 8.00139 16.922C7.9248 17.3484 11.0209 16.0306 12.9715 12.8703C14.2352 10.8228 14.7647 7.95236 14.9425 6.72906C14.9843 6.44152 14.692 6.21411 14.38 6.27675C13.6764 6.41801 12.5308 6.61715 11.6775 6.61426C10.8231 6.61135 9.66962 6.40389 8.98839 6.2642Z"/>
<path d="M11.692 1.09054C11.2367 1.6519 11.1766 2.66415 11.1795 3.19925C11.1807 3.40381 11.3566 3.56665 11.581 3.58534L11.6167 3.58831C11.9025 3.6121 12.1463 3.39572 12.1538 3.13534C12.1668 2.6805 12.2467 2.02266 12.5713 1.63974C12.9566 1.18529 13.8135 0.968201 14.377 0.871047C14.6567 0.822846 14.8509 0.572522 14.7819 0.321946L14.7774 0.305675C14.7216 0.103261 14.511 -0.0301663 14.2846 0.00587595C13.6073 0.113671 12.2451 0.408473 11.692 1.09054Z"/>
<path d="M22.6734 5.3935C22.8765 5.349 23.0198 5.18293 22.9978 4.99442C22.9642 4.70661 22.8854 4.42411 22.7635 4.15569C22.5964 3.78808 22.3516 3.45407 22.043 3.17271C21.7344 2.89136 21.368 2.66818 20.9647 2.51591C20.5615 2.36364 20.1293 2.28527 19.6929 2.28527C19.2564 2.28527 18.8242 2.36364 18.421 2.51591C18.0178 2.66818 17.6514 2.89136 17.3427 3.17271C17.0341 3.45407 16.7893 3.78808 16.6223 4.15569C16.5003 4.42411 16.4216 4.70661 16.388 4.99443C16.3659 5.18293 16.5093 5.349 16.7123 5.3935C17.3428 5.53168 18.7113 5.80432 19.6929 5.80432C20.6744 5.80432 22.0429 5.53168 22.6734 5.3935Z"/>
<path d="M16.9884 6.2642C16.6964 6.20431 16.412 6.39638 16.4065 6.66805C16.3637 8.78486 16.1941 15.8493 16.0014 16.922C15.9248 17.3484 19.0209 16.0306 20.9715 12.8703C22.2352 10.8228 22.7647 7.95236 22.9425 6.72906C22.9843 6.44152 22.692 6.21411 22.38 6.27675C21.6764 6.41801 20.5308 6.61715 19.6775 6.61426C18.8231 6.61135 17.6696 6.40389 16.9884 6.2642Z"/>
<path d="M19.692 1.09054C19.2367 1.6519 19.1766 2.66415 19.1795 3.19925C19.1807 3.40381 19.3566 3.56665 19.581 3.58534L19.6167 3.58831C19.9025 3.6121 20.1463 3.39572 20.1538 3.13534C20.1668 2.6805 20.2467 2.02266 20.5713 1.63974C20.9566 1.18529 21.8135 0.968201 22.377 0.871047C22.6567 0.822846 22.8509 0.572522 22.7819 0.321946L22.7774 0.305675C22.7216 0.103261 22.511 -0.0301663 22.2846 0.00587595C21.6073 0.113671 20.2451 0.408473 19.692 1.09054Z"/>
</symbol><symbol viewBox="0 0 23 19" id="peppers_2" xmlns="http://www.w3.org/2000/svg">
<path d="M6.67343 5.3935C6.87647 5.349 7.01978 5.18293 6.99777 4.99442C6.96416 4.70661 6.88542 4.42411 6.76345 4.15569C6.59643 3.78808 6.35162 3.45407 6.04299 3.17271C5.73437 2.89136 5.36798 2.66818 4.96475 2.51591C4.56151 2.36364 4.12932 2.28527 3.69287 2.28527C3.25641 2.28527 2.82422 2.36364 2.42099 2.51591C2.01775 2.66818 1.65136 2.89136 1.34274 3.17271C1.03412 3.45407 0.789304 3.78808 0.622279 4.15569C0.500316 4.42411 0.421574 4.70661 0.387963 4.99443C0.365949 5.18293 0.509266 5.349 0.712302 5.3935C1.34283 5.53168 2.71129 5.80432 3.69287 5.80432C4.67444 5.80432 6.0429 5.53168 6.67343 5.3935Z"/>
<path d="M0.988392 6.2642C0.696358 6.20431 0.412019 6.39638 0.406521 6.66805C0.36368 8.78486 0.19406 15.8493 0.00139466 16.922C-0.0752033 17.3484 3.02089 16.0306 4.97146 12.8703C6.23523 10.8228 6.76469 7.95236 6.9425 6.72906C6.9843 6.44152 6.69205 6.21411 6.38002 6.27675C5.67636 6.41801 4.53082 6.61715 3.67748 6.61426C2.82308 6.61135 1.66962 6.40389 0.988392 6.2642Z"/>
<path d="M3.69196 1.09054C3.23672 1.6519 3.17656 2.66415 3.17955 3.19925C3.18069 3.40381 3.35658 3.56665 3.58104 3.58534L3.6167 3.58831C3.90251 3.6121 4.14634 3.39572 4.15378 3.13534C4.16677 2.6805 4.24672 2.02266 4.57135 1.63974C4.9566 1.18529 5.81345 0.968201 6.37704 0.871047C6.65666 0.822846 6.85095 0.572522 6.78186 0.321946L6.77738 0.305675C6.72157 0.103261 6.51103 -0.0301663 6.28457 0.00587595C5.6073 0.113671 4.2451 0.408473 3.69196 1.09054Z"/>
<path d="M14.6734 5.3935C14.8765 5.349 15.0198 5.18293 14.9978 4.99442C14.9642 4.70661 14.8854 4.42411 14.7635 4.15569C14.5964 3.78808 14.3516 3.45407 14.043 3.17271C13.7344 2.89136 13.368 2.66818 12.9647 2.51591C12.5615 2.36364 12.1293 2.28527 11.6929 2.28527C11.2564 2.28527 10.8242 2.36364 10.421 2.51591C10.0178 2.66818 9.65136 2.89136 9.34274 3.17271C9.03412 3.45407 8.7893 3.78808 8.62228 4.15569C8.50032 4.42411 8.42157 4.70661 8.38796 4.99443C8.36595 5.18293 8.50927 5.349 8.7123 5.3935C9.34283 5.53168 10.7113 5.80432 11.6929 5.80432C12.6744 5.80432 14.0429 5.53168 14.6734 5.3935Z"/>
<path d="M8.98839 6.2642C8.69636 6.20431 8.41202 6.39638 8.40652 6.66805C8.36368 8.78486 8.19406 15.8493 8.00139 16.922C7.9248 17.3484 11.0209 16.0306 12.9715 12.8703C14.2352 10.8228 14.7647 7.95236 14.9425 6.72906C14.9843 6.44152 14.692 6.21411 14.38 6.27675C13.6764 6.41801 12.5308 6.61716 11.6775 6.61426C10.8231 6.61135 9.66962 6.40389 8.98839 6.2642Z"/>
<path d="M11.692 1.09054C11.2367 1.6519 11.1766 2.66415 11.1795 3.19925C11.1807 3.40381 11.3566 3.56665 11.581 3.58534L11.6167 3.58831C11.9025 3.6121 12.1463 3.39572 12.1538 3.13534C12.1668 2.6805 12.2467 2.02266 12.5713 1.63974C12.9566 1.18529 13.8135 0.968201 14.377 0.871047C14.6567 0.822846 14.8509 0.572522 14.7819 0.321946L14.7774 0.305675C14.7216 0.103261 14.511 -0.0301663 14.2846 0.00587595C13.6073 0.113671 12.2451 0.408473 11.692 1.09054Z"/>
<path d="M22.6734 5.3935C22.8765 5.349 23.0198 5.18293 22.9978 4.99442C22.9642 4.70661 22.8854 4.42411 22.7635 4.15569C22.5964 3.78808 22.3516 3.45407 22.043 3.17271C21.7344 2.89136 21.368 2.66818 20.9647 2.51591C20.5615 2.36364 20.1293 2.28527 19.6929 2.28527C19.2564 2.28527 18.8242 2.36364 18.421 2.51591C18.0178 2.66818 17.6514 2.89136 17.3427 3.17271C17.0341 3.45407 16.7893 3.78808 16.6223 4.15569C16.5003 4.42411 16.4216 4.70661 16.388 4.99443C16.3659 5.18293 16.5093 5.349 16.7123 5.3935C17.3428 5.53168 18.7113 5.80432 19.6929 5.80432C20.6744 5.80432 22.0429 5.53168 22.6734 5.3935Z"/>
<path d="M16.9884 6.2642C16.6964 6.20431 16.412 6.39638 16.4065 6.66805C16.3637 8.78486 16.1941 15.8493 16.0014 16.922C15.9248 17.3484 19.0209 16.0306 20.9715 12.8703C22.2352 10.8228 22.7647 7.95236 22.9425 6.72906C22.9843 6.44152 22.692 6.21411 22.38 6.27675C21.6764 6.41801 20.5308 6.61716 19.6775 6.61426C18.8231 6.61135 17.6696 6.40389 16.9884 6.2642Z"/>
<path d="M19.692 1.09054C19.2367 1.6519 19.1766 2.66415 19.1795 3.19925C19.1807 3.40381 19.3566 3.56665 19.581 3.58534L19.6167 3.58831C19.9025 3.6121 20.1463 3.39572 20.1538 3.13534C20.1668 2.6805 20.2467 2.02266 20.5713 1.63974C20.9566 1.18529 21.8135 0.968201 22.377 0.871047C22.6567 0.822846 22.8509 0.572522 22.7819 0.321946L22.7774 0.305675C22.7216 0.103261 22.511 -0.0301663 22.2846 0.00587595C21.6073 0.113671 20.2451 0.408473 19.692 1.09054Z"/>
</symbol><symbol viewBox="0 0 30 22" id="sauce" xmlns="http://www.w3.org/2000/svg">
<path d="M14.6224 14.5C14.6223 14.5 14.6222 14.5 14.6222 14.5001L14.5217 14.9861C14.4607 15.2809 14.161 15.468 13.8704 15.3733C11.6362 14.645 9.8236 12.8904 8.89903 10.5534C8.80565 10.3174 8.92882 10.0554 9.16732 9.9595C9.42924 9.85416 9.72598 9.98921 9.83241 10.2469C10.723 12.4031 12.4827 13.9761 14.6224 14.5Z"/>
<path d="M4.26557 1.00003C5.69531 1.00003 7.02225 1.77257 7.81518 3.06633L8.62965 4.39494C11.1553 4.71247 15.436 5.21049 17.4193 5.21049C19.8692 5.21049 24.4143 4.45094 25.7493 4.2181C25.9789 4.17826 26.2126 4.15801 26.4445 4.15801C27.6185 4.15801 28.722 4.65512 29.552 5.55782L29.6135 5.62474C29.8615 5.89446 29.9987 6.25295 30 6.63444C30.0023 7.26882 29.6122 7.83351 29.0514 8.00785L28.2875 8.24526C27.1694 8.5926 26.2708 9.51216 25.8839 10.7049C24.9987 13.4328 23.1572 15.5886 20.8571 16.79L21.2903 16.7895C22.3575 16.7895 23.2258 17.7339 23.2258 18.8948C23.2258 20.0556 22.3575 21 21.2903 21H11.6129C10.5456 21 9.67737 20.0556 9.67737 18.8948C9.67737 17.7339 10.5456 16.7895 11.6129 16.7895H11.8925C8.74193 15.1423 6.51647 11.7214 6.33057 7.67848C6.30902 7.20891 6.1709 6.75415 5.93129 6.3631L4.90398 4.68714C4.70099 4.35596 4.36135 4.15816 3.99534 4.15816C3.39308 4.15816 2.90315 4.69101 2.90315 5.34611V6.38086C2.90315 8.70507 4.09032 10.7943 6.00158 11.8339C6.47808 12.0931 6.7742 12.6142 6.7742 13.1936C6.7742 13.7031 6.54149 14.176 6.15185 14.4587C5.76219 14.7412 5.27122 14.7929 4.83911 14.5971C1.89931 13.2644 0 10.1654 0 6.70158V5.64043C0 3.08157 1.91377 1 4.26615 1L4.26557 1.00003ZM28.85 6.28347C28.2049 5.59128 27.3515 5.21049 26.4443 5.21049C26.2637 5.21049 26.0814 5.22619 25.9023 5.2576C24.5496 5.49341 19.9402 6.26322 17.4191 6.26322C15.5918 6.26322 11.9075 5.85624 9.3323 5.54167L9.5895 5.96139C9.64056 6.03559 10.2294 6.86912 11.4311 7.69084C11.587 7.79759 11.7586 7.90685 11.9446 8.01633C13.362 7.5702 15.3404 7.31575 17.4192 7.31575C19.7129 7.31575 21.823 7.61484 23.2581 8.13974C23.3761 8.07555 23.4864 8.01205 23.5893 7.94946C25.2067 6.96499 27.0132 6.39482 28.8501 6.28352L28.85 6.28347ZM13.4265 8.72328C14.4862 9.12388 15.8134 9.42094 17.4191 9.42094C19.2232 9.42094 20.6427 9.14986 21.7319 8.79111C20.5136 8.52093 18.9974 8.36842 17.4191 8.36842C15.9739 8.36842 14.5871 8.4943 13.4265 8.72328ZM11.6126 17.8419C11.0789 17.8419 10.6447 18.3142 10.6447 18.8946C10.6447 19.475 11.079 19.9473 11.6126 19.9473L21.2899 19.9471C21.8236 19.9471 22.2578 19.4748 22.2578 18.8944C22.2578 18.314 21.8235 17.8417 21.2899 17.8417L11.6126 17.8419ZM0.967155 6.7019C0.967155 9.73945 2.63294 12.457 5.21069 13.6249C5.34567 13.6862 5.49279 13.6707 5.61458 13.5824C5.73638 13.4941 5.80607 13.3525 5.80607 13.1934C5.80607 13.0151 5.71504 12.8549 5.56834 12.775C4.47572 12.1807 3.55872 11.2693 2.91671 10.1392C2.27426 9.00892 1.93483 7.70921 1.93483 6.3806V5.34585C1.93483 4.11059 2.85896 3.10543 3.99464 3.10543C4.68503 3.10543 5.3256 3.4785 5.70854 4.10307L6.73584 5.77903C7.07234 6.32804 7.26634 6.96674 7.2967 7.62565C7.53275 12.7643 11.423 16.7897 16.1533 16.7897H16.6093C20.3619 16.7897 23.7227 14.2036 24.9715 10.3544C25.3645 9.14306 26.1735 8.15381 27.2081 7.5809C26.1113 7.8347 25.0485 8.26761 24.0618 8.86808C22.3108 9.93378 20.0759 10.4739 17.4188 10.4739C14.3028 10.4739 12.1369 9.42759 10.8685 8.5497C9.47451 7.58481 8.8258 6.61042 8.79902 6.56946L7.0098 3.65072C6.39666 2.65035 5.37058 2.05308 4.26527 2.05308C2.44654 2.05308 0.966809 3.66255 0.966809 5.64075L0.967155 6.7019Z"/>
<path d="M16.6118 15.2372C16.6118 15.5422 16.3602 15.7895 16.0498 15.7895C15.7393 15.7895 15.4877 15.5422 15.4877 15.2372C15.4877 14.9322 15.7393 14.6849 16.0498 14.6849C16.3602 14.6849 16.6118 14.9322 16.6118 15.2372Z"/>
</symbol><symbol viewBox="0 0 20 20" id="search" xmlns="http://www.w3.org/2000/svg">
<title>search</title>
<path d="M12.9 14.32c-1.34 1.049-3.050 1.682-4.908 1.682-4.418 0-8-3.582-8-8s3.582-8 8-8c4.418 0 8 3.582 8 8 0 1.858-0.633 3.567-1.695 4.925l0.013-0.018 5.35 5.33-1.42 1.42-5.33-5.34zM8 14c3.314 0 6-2.686 6-6s-2.686-6-6-6v0c-3.314 0-6 2.686-6 6s2.686 6 6 6v0z"/>
</symbol><symbol viewBox="0 0 24 24" id="twitter" xmlns="http://www.w3.org/2000/svg">
<title>twitter</title>
<path d="M20.833 5.262c-0.186 0.242-0.391 0.475-0.616 0.696-0.233 0.232-0.347 0.567-0.278 0.908 0.037 0.182 0.060 0.404 0.061 0.634 0 5.256-2.429 8.971-5.81 10.898-2.647 1.509-5.938 1.955-9.222 1.12 1.245-0.361 2.46-0.921 3.593-1.69 0.147-0.099 0.273-0.243 0.352-0.421 0.224-0.505-0.003-1.096-0.508-1.32-2.774-1.233-4.13-2.931-4.769-4.593-0.417-1.084-0.546-2.198-0.52-3.227 0.021-0.811 0.138-1.56 0.278-2.182 0.394 0.343 0.803 0.706 1.235 1.038 2.051 1.577 4.624 2.479 7.395 2.407 0.543-0.015 0.976-0.457 0.976-1v-1.011c-0.002-0.179 0.009-0.357 0.034-0.533 0.113-0.806 0.504-1.569 1.162-2.141 0.725-0.631 1.636-0.908 2.526-0.846s1.753 0.463 2.384 1.188c0.252 0.286 0.649 0.416 1.033 0.304 0.231-0.067 0.463-0.143 0.695-0.228zM22.424 2.183c-0.74 0.522-1.523 0.926-2.287 1.205-0.931-0.836-2.091-1.302-3.276-1.385-1.398-0.097-2.836 0.339-3.977 1.332-1.036 0.901-1.652 2.108-1.83 3.372-0.037 0.265-0.055 0.532-0.054 0.8-1.922-0.142-3.693-0.85-5.15-1.97-0.775-0.596-1.462-1.309-2.034-2.116-0.32-0.45-0.944-0.557-1.394-0.237-0.154 0.109-0.267 0.253-0.335 0.409 0 0-0.132 0.299-0.285 0.76-0.112 0.337-0.241 0.775-0.357 1.29-0.163 0.722-0.302 1.602-0.326 2.571-0.031 1.227 0.12 2.612 0.652 3.996 0.683 1.775 1.966 3.478 4.147 4.823-1.569 0.726-3.245 1.039-4.873 0.967-0.552-0.024-1.019 0.403-1.043 0.955-0.017 0.389 0.19 0.736 0.513 0.918 4.905 2.725 10.426 2.678 14.666 0.261 4.040-2.301 6.819-6.7 6.819-12.634-0.001-0.167-0.008-0.33-0.023-0.489 1.006-1.115 1.676-2.429 1.996-3.781 0.127-0.537-0.206-1.076-0.743-1.203-0.29-0.069-0.58-0.003-0.807 0.156z"/>
</symbol></svg>